<svg width="10" height="10" viewBox="0 0 10 10" fill="none" xmlns="http://www.w3.org/2000/svg">
<path d="M0.302678 8.6365C0.00978452 8.92939 0.00978452 9.40427 0.302678 9.69716C0.595571 9.99005 1.07044 9.99005 1.36334 9.69716L0.302678 8.6365ZM5.53 5.53049C5.8229 5.2376 5.8229 4.76273 5.53 4.46983C5.23711 4.17694 4.76224 4.17694 4.46934 4.46983L5.53 5.53049ZM4.46934 4.46983C4.17645 4.76273 4.17645 5.2376 4.46934 5.53049C4.76224 5.82339 5.23711 5.82339 5.53 5.53049L4.46934 4.46983ZM9.69667 1.36383C9.98956 1.07093 9.98956 0.596059 9.69667 0.303166C9.40378 0.0102728 8.9289 0.0102728 8.63601 0.303166L9.69667 1.36383ZM5.53 4.46983C5.23711 4.17694 4.76224 4.17694 4.46934 4.46983C4.17645 4.76273 4.17645 5.2376 4.46934 5.53049L5.53 4.46983ZM8.63601 9.69716C8.9289 9.99005 9.40378 9.99005 9.69667 9.69716C9.98956 9.40427 9.98956 8.92939 9.69667 8.6365L8.63601 9.69716ZM4.46934 5.53049C4.76224 5.82339 5.23711 5.82339 5.53 5.53049C5.8229 5.2376 5.8229 4.76273 5.53 4.46983L4.46934 5.53049ZM1.36334 0.303166C1.07044 0.0102728 0.595571 0.0102728 0.302678 0.303166C0.00978452 0.596059 0.00978452 1.07093 0.302678 1.36383L1.36334 0.303166ZM1.36334 9.69716L5.53 5.53049L4.46934 4.46983L0.302678 8.6365L1.36334 9.69716ZM5.53 5.53049L9.69667 1.36383L8.63601 0.303166L4.46934 4.46983L5.53 5.53049ZM4.46934 5.53049L8.63601 9.69716L9.69667 8.6365L5.53 4.46983L4.46934 5.53049ZM5.53 4.46983L1.36334 0.303166L0.302678 1.36383L4.46934 5.53049L5.53 4.46983Z" fill="white"/>
</svg>
